<svg width="44" height="60" viewBox="0 0 44 60" fill="none" xmlns="http://www.w3.org/2000/svg">
<path d="M26.0164 8.3739V0H17.0925V8.3739L0 10.1517V37.8723C0 52.9972 19.734 59.4229 20.5707 59.6901L21.5506 60L22.5305 59.6901C23.371 59.4229 43.1012 53.0011 43.1012 37.8723V10.1517L26.0164 8.3739ZM9.95416 45.7892H33.1973C32.3491 46.7149 31.3963 47.5592 30.4048 48.3222H12.7584C11.7668 47.5592 10.8101 46.7149 9.95416 45.7892ZM26.4967 50.8515C24.471 51.9708 22.6351 52.7338 21.5622 53.1444C20.5009 52.7338 18.6844 51.9669 16.6742 50.8515H26.4967ZM36.6174 37.8723C36.6174 40.4441 35.6375 42.6983 34.1656 44.6349L32.8371 43.2561H8.04854C7.57601 42.4582 7.19256 41.6138 6.92531 40.723H30.3931L27.953 38.1899H6.51088C6.507 38.0815 6.49926 37.9769 6.49926 37.8684V35.6607H25.509L23.0689 33.1276H6.49151V30.5945H20.6249L18.1847 28.0615H6.49151V25.5284H15.7408L13.3006 22.9953H6.49151V20.4622H10.8566L8.4165 17.9291H6.49151V15.9886L21.5544 14.4239L36.6174 15.9886V37.8723Z" fill="#004E37"/>
</svg>
