<?xml version="1.0" standalone="no"?>
<!DOCTYPE svg PUBLIC "-//W3C//DTD SVG 20010904//EN"
 "http://www.w3.org/TR/2001/REC-SVG-20010904/DTD/svg10.dtd">
<svg version="1.0" xmlns="http://www.w3.org/2000/svg"
 width="512.000000pt" height="512.000000pt" viewBox="0 0 512.000000 512.000000"
 preserveAspectRatio="xMidYMid meet">
<metadata>
Created by potrace 1.14, written by Peter Selinger 2001-2017
</metadata>
<g transform="translate(0.000000,512.000000) scale(0.100000,-0.100000)"
fill="#000000" stroke="none">
<path d="M2234 4465 c1 -163 -1 -301 -4 -308 -6 -14 -1 -13 -105 -22 -44 -3
-91 -8 -105 -10 -30 -4 -99 -12 -195 -21 -38 -4 -77 -8 -86 -9 -9 -2 -52 -6
-95 -10 -43 -3 -90 -8 -104 -10 -24 -4 -86 -11 -175 -20 -78 -7 -180 -17 -205
-20 -14 -2 -60 -7 -103 -11 l-77 -7 1 -1066 c0 -586 5 -1094 10 -1129 14 -99
18 -115 40 -187 109 -354 393 -688 800 -940 197 -122 515 -272 680 -319 56
-16 56 -16 145 14 49 17 98 35 109 40 11 5 49 21 85 36 120 51 364 180 470
248 433 281 700 616 787 986 8 36 18 74 21 85 3 11 8 518 9 1126 l4 1106 -133
12 c-72 7 -141 14 -152 16 -12 2 -52 6 -91 10 -78 7 -125 12 -200 21 -27 4
-63 7 -80 9 -78 6 -192 18 -205 20 -8 2 -53 6 -100 10 -47 4 -87 8 -90 10 -4
3 -155 17 -187 18 -13 0 -14 19 -15 485 l0 132 -327 0 -327 0 0 -295z m491
-779 c18 -3 55 -8 190 -21 52 -5 149 -15 203 -21 79 -8 127 -13 192 -19 36 -4
77 -8 92 -10 14 -2 57 -6 95 -10 37 -3 90 -9 118 -13 l50 -7 -1 -825 c0 -746
-3 -879 -18 -945 -18 -78 -76 -207 -128 -284 l-30 -43 -52 51 -51 50 -909 0
c-499 0 -909 1 -911 3 -16 18 -74 173 -66 177 5 3 390 6 855 5 466 0 845 3
844 7 -2 4 -40 46 -86 93 l-83 86 -784 0 c-740 0 -785 1 -786 18 -3 42 -4 148
-2 157 2 7 237 10 689 10 377 0 688 3 690 6 2 3 -34 45 -80 93 l-84 86 -608 2
-608 3 1 70 c0 39 1 79 2 91 1 20 3 20 499 19 273 0 505 1 514 3 13 3 -5 27
-71 94 l-88 90 -426 0 -427 0 -1 22 c-1 25 -1 136 0 152 1 9 92 12 331 12 182
0 333 1 335 3 2 2 -36 44 -83 94 l-87 89 -247 0 c-174 -1 -248 2 -249 10 -1 6
-2 47 -3 91 l-1 80 158 5 158 5 -89 91 -88 91 -67 -2 c-41 -1 -67 3 -68 9 -4
42 -3 128 1 131 6 3 125 17 260 30 36 3 81 8 100 10 19 3 60 7 90 10 90 8 153
15 190 20 19 3 67 7 105 11 39 3 84 8 100 10 17 1 66 6 110 10 44 3 82 9 85
11 5 5 188 -4 225 -11z m675 -2285 c16 -1 -62 -81 -145 -147 l-50 -40 -647 1
-647 1 -73 65 c-62 54 -128 118 -128 123 0 1 1662 -2 1690 -3z m-490 -376 c0
-7 -238 -120 -296 -141 -64 -22 -77 -19 -271 77 l-138 67 353 1 c193 1 352 -1
352 -4z"/>
</g>
</svg>
